<?xml version="1.0" ?><svg viewBox="0 0 36 36" xmlns="http://www.w3.org/2000/svg"><defs><style>.cls-1{fill:#d6dbe1;}.cls-2{fill:#e2b8aa;}.cls-3{fill:#2d9687;}</style></defs><title/><g id="nerd"><path class="cls-1" d="M6,18A15,15,0,0,1,19.5,3.08,14.76,14.76,0,0,0,18,3a15,15,0,0,0,0,30,14.76,14.76,0,0,0,1.5-.08A15,15,0,0,1,6,18Z"/><path class="cls-2" d="M33.71,15a14.64,14.64,0,0,0-.51-2A16,16,0,0,0,2.8,13a14.64,14.64,0,0,0-.51,2A15.57,15.57,0,0,0,2,18a16,16,0,0,0,32,0A15.57,15.57,0,0,0,33.71,15ZM18,32A14,14,0,0,1,4.32,15a13.24,13.24,0,0,1,.61-2,14,14,0,0,1,26.14,0,13.24,13.24,0,0,1,.61,2A14,14,0,0,1,18,32Z"/><path class="cls-2" d="M18.37,27.1a7.77,7.77,0,0,1-1-.06,7.13,7.13,0,0,1-5.27-3.54,1,1,0,1,1,1.74-1A5.14,5.14,0,0,0,22,23.59l.3-.3a1,1,0,0,1,1.42,1.42l-.3.3A7.09,7.09,0,0,1,18.37,27.1Z"/><path class="cls-3" d="M33.71,15H28a4.48,4.48,0,0,1-8.75.78,3.42,3.42,0,0,0-2.4,0A4.48,4.48,0,0,1,8.05,15H2.29a14.64,14.64,0,0,1,.51-2H8V12a1,1,0,0,1,1-1h7a1,1,0,0,1,1,1v1.63a5.6,5.6,0,0,1,2,0V12a1,1,0,0,1,1-1h7a1,1,0,0,1,1,1v1h5.2A14.64,14.64,0,0,1,33.71,15Z"/></g></svg>
