<?xml version="1.0" encoding="utf-8"?><svg viewBox="0 0 502.66 502.66" xmlns="http://www.w3.org/2000/svg" xmlns:xlink="http://www.w3.org/1999/xlink"><style>:root>svg{display:none}:root>svg:target{display:block}</style><svg viewBox="0 0 15.698 8.706" id="arrow-right" xmlns="http://www.w3.org/2000/svg"><path d="M11.354 0l-.708.706 3.14 3.147H0v1h13.786L10.646 8l.708.706 4.344-4.353z"/></svg><svg viewBox="0 0 502.664 502.664" id="icon" xmlns="http://www.w3.org/2000/svg"><path d="M153.821 358.226L0 274.337v-46.463l153.821-83.414v54.574L46.636 250.523l107.185 53.431v54.272zm26.273 29.358L282.103 115.08h32.227L212.084 387.584h-31.99zm168.749-29.358v-54.272l107.164-52.999-107.164-52.59v-53.927l153.821 83.522v46.183l-153.821 84.083z"/></svg><svg class="cbi cbi-x" viewBox="0 0 16 16" id="icon-close-modal" xmlns="http://www.w3.org/2000/svg"><path fill-rule="evenodd" d="M4.646 4.646a.5.5 0 01.708 0L8 7.293l2.646-2.647a.5.5 0 01.708.708L8.707 8l2.647 2.646a.5.5 0 01-.708.708L8 8.707l-2.646 2.647a.5.5 0 01-.708-.708L7.293 8 4.646 5.354a.5.5 0 010-.708z"/></svg><svg fill-rule="evenodd" viewBox="0 0 32 32" id="icons-github" xmlns="http://www.w3.org/2000/svg"><path d="M16 4C9.371 4 4 9.371 4 16c0 5.3 3.438 9.8 8.207 11.387.602.11.82-.258.82-.578 0-.286-.011-1.04-.015-2.04-3.34.723-4.043-1.609-4.043-1.609-.547-1.387-1.332-1.758-1.332-1.758-1.09-.742.082-.726.082-.726 1.203.086 1.836 1.234 1.836 1.234 1.07 1.836 2.808 1.305 3.492 1 .11-.777.422-1.305.762-1.605-2.664-.301-5.465-1.332-5.465-5.93 0-1.313.469-2.383 1.234-3.223-.121-.3-.535-1.523.117-3.175 0 0 1.008-.32 3.301 1.23A11.487 11.487 0 0116 9.805c1.02.004 2.047.136 3.004.402 2.293-1.55 3.297-1.23 3.297-1.23.656 1.652.246 2.875.12 3.175.77.84 1.231 1.91 1.231 3.223 0 4.61-2.804 5.621-5.476 5.922.43.367.812 1.101.812 2.219 0 1.605-.011 2.898-.011 3.293 0 .32.214.695.824.578C24.566 25.797 28 21.3 28 16c0-6.629-5.371-12-12-12z"/></svg><svg data-name="Livello 1" viewBox="0 0 128 128" id="icons-mail" xmlns="http://www.w3.org/2000/svg"><path d="M116.73 31.83a3 3 0 00-4.2-.61L64.14 67.34a1 1 0 01-1.2 0L15.5 31.06a3 3 0 10-3.64 4.77l37.3 28.53-36.89 27.8A3 3 0 1015.88 97l38.23-28.86 5.18 4a7 7 0 008.43.06l5.44-4.06L111.84 97a3 3 0 103.59-4.81L78.17 64.35 116.12 36a3 3 0 00.61-4.17z"/><path d="M113 19H15A15 15 0 000 34v60a15 15 0 0015 15h98a15 15 0 0015-15V34a15 15 0 00-15-15zm9 75a9 9 0 01-9 9H15a9 9 0 01-9-9V34a9 9 0 019-9h98a9 9 0 019 9z"/></svg></svg>